<svg width="512" height="512" xmlns="http://www.w3.org/2000/svg">

 <g>
  <title>background</title>
  <rect fill="none" id="canvas_background" height="402" width="582" y="-1" x="-1"/>
 </g>
 <g>
  <title>Layer 1</title>
  <path fill="#ffffff" id="svg_1" d="m505.122,245.073c-0.55,-15.348 -2.304,-30.38 -5.473,-44.904l-101.84,0l0,-17.961l35.923,0l0,-17.961l-71.846,0l0,-17.962l53.885,0l0,-17.961l-17.962,0l0,-17.961l-35.923,0l0,-17.964l17.962,0l0,-17.961l-35.924,0l0,-17.961l17.962,0l0,-17.962l0,-11.401c-32.697,-15.553 -69.146,-24.522 -107.77,-24.522c-135.852,0 -246.246,107.793 -251.012,242.481l502.018,0zm-340.813,-188.596c39.671,0 71.846,32.175 71.846,71.846c0,39.683 -32.175,71.846 -71.846,71.846c-39.689,0 -71.847,-32.164 -71.847,-71.846c0,-39.671 32.158,-71.846 71.847,-71.846"/>
  <path fill="#ffffff" id="svg_2" d="m308.001,487.554l-17.962,0l0,-17.961l53.885,0l0,-17.962l17.962,0l0,-17.962l53.885,0l0,-17.961l17.961,0l0,-17.962l-35.923,0l0,-17.961l-53.885,0l0,-17.962l35.924,0l0,-17.962l71.846,0l0,-17.961l-35.923,0l0,-17.962l83.879,0c3.169,-14.523 4.923,-29.55 5.473,-44.904l-502.019,0c4.765,134.7 115.16,242.481 251.012,242.481c18.522,0 36.52,-2.14 53.885,-5.929l0,-12.032z"/>
 </g>
</svg>